<mxfile host="app.diagrams.net" modified="2024-07-22T16:06:45.085Z" agent="Mozilla/5.0 (Windows NT 10.0; Win64; x64) AppleWebKit/537.36 (KHTML, like Gecko) Chrome/126.0.0.0 Safari/537.36 Edg/126.0.0.0" etag="lqTkL-eUiV8Kd9PeYhi3" version="24.7.1" type="device">
  <diagram name="Страница — 1" id="K5W9fzkMf_qLt9h5QQdf">
    <mxGraphModel dx="1386" dy="1962" grid="1" gridSize="10" guides="1" tooltips="1" connect="1" arrows="1" fold="1" page="1" pageScale="1" pageWidth="827" pageHeight="1169" math="0" shadow="0">
      <root>
        <mxCell id="0" />
        <mxCell id="1" parent="0" />
        <mxCell id="Ds0QfwhCDmMXiLFeGdqZ-48" style="edgeStyle=orthogonalEdgeStyle;rounded=0;orthogonalLoop=1;jettySize=auto;html=1;exitX=0.5;exitY=1;exitDx=0;exitDy=0;entryX=0.5;entryY=0;entryDx=0;entryDy=0;" edge="1" parent="1" source="Ds0QfwhCDmMXiLFeGdqZ-19" target="Ds0QfwhCDmMXiLFeGdqZ-45">
          <mxGeometry relative="1" as="geometry" />
        </mxCell>
        <mxCell id="Ds0QfwhCDmMXiLFeGdqZ-19" value="User" style="html=1;whiteSpace=wrap;" vertex="1" parent="1">
          <mxGeometry x="370" y="-870" width="110" height="50" as="geometry" />
        </mxCell>
        <mxCell id="Ds0QfwhCDmMXiLFeGdqZ-32" style="edgeStyle=orthogonalEdgeStyle;rounded=0;orthogonalLoop=1;jettySize=auto;html=1;" edge="1" parent="1" source="Ds0QfwhCDmMXiLFeGdqZ-22" target="Ds0QfwhCDmMXiLFeGdqZ-33">
          <mxGeometry relative="1" as="geometry">
            <mxPoint x="565" y="-560" as="targetPoint" />
          </mxGeometry>
        </mxCell>
        <mxCell id="Ds0QfwhCDmMXiLFeGdqZ-22" value="Admin" style="html=1;whiteSpace=wrap;" vertex="1" parent="1">
          <mxGeometry x="640" y="-660" width="110" height="50" as="geometry" />
        </mxCell>
        <mxCell id="Ds0QfwhCDmMXiLFeGdqZ-40" style="edgeStyle=orthogonalEdgeStyle;rounded=0;orthogonalLoop=1;jettySize=auto;html=1;exitX=0.5;exitY=1;exitDx=0;exitDy=0;" edge="1" parent="1" source="Ds0QfwhCDmMXiLFeGdqZ-23" target="Ds0QfwhCDmMXiLFeGdqZ-30">
          <mxGeometry relative="1" as="geometry" />
        </mxCell>
        <mxCell id="Ds0QfwhCDmMXiLFeGdqZ-23" value="Student" style="html=1;whiteSpace=wrap;" vertex="1" parent="1">
          <mxGeometry x="180" y="-660" width="110" height="50" as="geometry" />
        </mxCell>
        <mxCell id="Ds0QfwhCDmMXiLFeGdqZ-59" style="edgeStyle=orthogonalEdgeStyle;rounded=0;orthogonalLoop=1;jettySize=auto;html=1;entryX=0.345;entryY=1;entryDx=0;entryDy=0;entryPerimeter=0;" edge="1" parent="1" source="Ds0QfwhCDmMXiLFeGdqZ-27" target="Ds0QfwhCDmMXiLFeGdqZ-55">
          <mxGeometry relative="1" as="geometry">
            <mxPoint x="670" y="-440" as="targetPoint" />
          </mxGeometry>
        </mxCell>
        <mxCell id="Ds0QfwhCDmMXiLFeGdqZ-27" value="createUser&lt;div&gt;&lt;br&gt;&lt;/div&gt;" style="html=1;whiteSpace=wrap;" vertex="1" parent="1">
          <mxGeometry x="530" y="-410" width="110" height="50" as="geometry" />
        </mxCell>
        <mxCell id="Ds0QfwhCDmMXiLFeGdqZ-30" value="&lt;span style=&quot;font-family: -apple-system, BlinkMacSystemFont, Arial, Helvetica, sans-serif; font-size: 16px; text-align: start; white-space-collapse: preserve; background-color: rgba(7, 28, 71, 0.05);&quot;&gt;Authentication&lt;/span&gt;" style="html=1;whiteSpace=wrap;" vertex="1" parent="1">
          <mxGeometry x="120" y="-550" width="110" height="50" as="geometry" />
        </mxCell>
        <mxCell id="Ds0QfwhCDmMXiLFeGdqZ-56" style="edgeStyle=orthogonalEdgeStyle;rounded=0;orthogonalLoop=1;jettySize=auto;html=1;exitX=0.5;exitY=1;exitDx=0;exitDy=0;entryX=0.5;entryY=0;entryDx=0;entryDy=0;" edge="1" parent="1" source="Ds0QfwhCDmMXiLFeGdqZ-33" target="Ds0QfwhCDmMXiLFeGdqZ-55">
          <mxGeometry relative="1" as="geometry" />
        </mxCell>
        <mxCell id="Ds0QfwhCDmMXiLFeGdqZ-33" value="&lt;span style=&quot;font-family: -apple-system, BlinkMacSystemFont, Arial, Helvetica, sans-serif; font-size: 16px; text-align: start; white-space-collapse: preserve; background-color: rgba(7, 28, 71, 0.05);&quot;&gt;Authentication&lt;/span&gt;" style="html=1;whiteSpace=wrap;" vertex="1" parent="1">
          <mxGeometry x="630" y="-584" width="110" height="50" as="geometry" />
        </mxCell>
        <mxCell id="Ds0QfwhCDmMXiLFeGdqZ-38" value="deleteUser" style="html=1;whiteSpace=wrap;" vertex="1" parent="1">
          <mxGeometry x="717" y="-410" width="110" height="50" as="geometry" />
        </mxCell>
        <mxCell id="Ds0QfwhCDmMXiLFeGdqZ-42" value="testing" style="html=1;whiteSpace=wrap;" vertex="1" parent="1">
          <mxGeometry x="10" y="-380" width="110" height="50" as="geometry" />
        </mxCell>
        <mxCell id="Ds0QfwhCDmMXiLFeGdqZ-67" style="edgeStyle=orthogonalEdgeStyle;rounded=0;orthogonalLoop=1;jettySize=auto;html=1;exitX=0.25;exitY=0;exitDx=0;exitDy=0;entryX=0.75;entryY=1;entryDx=0;entryDy=0;" edge="1" parent="1" source="Ds0QfwhCDmMXiLFeGdqZ-44" target="Ds0QfwhCDmMXiLFeGdqZ-51">
          <mxGeometry relative="1" as="geometry" />
        </mxCell>
        <mxCell id="Ds0QfwhCDmMXiLFeGdqZ-44" value="&lt;span style=&quot;font-family: -apple-system, BlinkMacSystemFont, Arial, Helvetica, sans-serif; text-align: start; white-space-collapse: preserve; background-color: rgba(7, 28, 71, 0.05);&quot;&gt;&lt;font style=&quot;font-size: 19px;&quot;&gt;showResult&lt;/font&gt;&lt;/span&gt;" style="html=1;whiteSpace=wrap;" vertex="1" parent="1">
          <mxGeometry x="170" y="-380" width="110" height="50" as="geometry" />
        </mxCell>
        <mxCell id="Ds0QfwhCDmMXiLFeGdqZ-49" style="edgeStyle=orthogonalEdgeStyle;rounded=0;orthogonalLoop=1;jettySize=auto;html=1;entryX=0.5;entryY=0;entryDx=0;entryDy=0;" edge="1" parent="1" source="Ds0QfwhCDmMXiLFeGdqZ-45" target="Ds0QfwhCDmMXiLFeGdqZ-23">
          <mxGeometry relative="1" as="geometry" />
        </mxCell>
        <mxCell id="Ds0QfwhCDmMXiLFeGdqZ-45" value="showMainMenu" style="html=1;whiteSpace=wrap;" vertex="1" parent="1">
          <mxGeometry x="370" y="-780" width="110" height="50" as="geometry" />
        </mxCell>
        <mxCell id="Ds0QfwhCDmMXiLFeGdqZ-50" style="edgeStyle=orthogonalEdgeStyle;rounded=0;orthogonalLoop=1;jettySize=auto;html=1;exitX=1;exitY=0.5;exitDx=0;exitDy=0;entryX=0.582;entryY=0.02;entryDx=0;entryDy=0;entryPerimeter=0;" edge="1" parent="1" source="Ds0QfwhCDmMXiLFeGdqZ-45" target="Ds0QfwhCDmMXiLFeGdqZ-22">
          <mxGeometry relative="1" as="geometry" />
        </mxCell>
        <mxCell id="Ds0QfwhCDmMXiLFeGdqZ-53" style="edgeStyle=orthogonalEdgeStyle;rounded=0;orthogonalLoop=1;jettySize=auto;html=1;entryX=0.5;entryY=0;entryDx=0;entryDy=0;" edge="1" parent="1" source="Ds0QfwhCDmMXiLFeGdqZ-51" target="Ds0QfwhCDmMXiLFeGdqZ-42">
          <mxGeometry relative="1" as="geometry" />
        </mxCell>
        <mxCell id="Ds0QfwhCDmMXiLFeGdqZ-66" style="edgeStyle=orthogonalEdgeStyle;rounded=0;orthogonalLoop=1;jettySize=auto;html=1;exitX=0.5;exitY=1;exitDx=0;exitDy=0;" edge="1" parent="1" source="Ds0QfwhCDmMXiLFeGdqZ-51" target="Ds0QfwhCDmMXiLFeGdqZ-44">
          <mxGeometry relative="1" as="geometry" />
        </mxCell>
        <mxCell id="Ds0QfwhCDmMXiLFeGdqZ-51" value="showStudentMenu" style="html=1;whiteSpace=wrap;" vertex="1" parent="1">
          <mxGeometry x="110" y="-470" width="110" height="50" as="geometry" />
        </mxCell>
        <mxCell id="Ds0QfwhCDmMXiLFeGdqZ-52" style="edgeStyle=orthogonalEdgeStyle;rounded=0;orthogonalLoop=1;jettySize=auto;html=1;exitX=0.5;exitY=1;exitDx=0;exitDy=0;entryX=0.582;entryY=-0.02;entryDx=0;entryDy=0;entryPerimeter=0;" edge="1" parent="1" source="Ds0QfwhCDmMXiLFeGdqZ-30" target="Ds0QfwhCDmMXiLFeGdqZ-51">
          <mxGeometry relative="1" as="geometry" />
        </mxCell>
        <mxCell id="Ds0QfwhCDmMXiLFeGdqZ-57" style="edgeStyle=orthogonalEdgeStyle;rounded=0;orthogonalLoop=1;jettySize=auto;html=1;entryX=0.5;entryY=0;entryDx=0;entryDy=0;exitX=0.5;exitY=0;exitDx=0;exitDy=0;" edge="1" parent="1" source="Ds0QfwhCDmMXiLFeGdqZ-38" target="Ds0QfwhCDmMXiLFeGdqZ-27">
          <mxGeometry relative="1" as="geometry">
            <Array as="points">
              <mxPoint x="772" y="-450" />
              <mxPoint x="585" y="-450" />
            </Array>
          </mxGeometry>
        </mxCell>
        <mxCell id="Ds0QfwhCDmMXiLFeGdqZ-55" value="showAdminMenu" style="html=1;whiteSpace=wrap;" vertex="1" parent="1">
          <mxGeometry x="630" y="-500" width="110" height="50" as="geometry" />
        </mxCell>
        <mxCell id="Ds0QfwhCDmMXiLFeGdqZ-60" style="edgeStyle=orthogonalEdgeStyle;rounded=0;orthogonalLoop=1;jettySize=auto;html=1;entryX=0.445;entryY=1.08;entryDx=0;entryDy=0;entryPerimeter=0;" edge="1" parent="1" source="Ds0QfwhCDmMXiLFeGdqZ-38" target="Ds0QfwhCDmMXiLFeGdqZ-55">
          <mxGeometry relative="1" as="geometry" />
        </mxCell>
        <mxCell id="Ds0QfwhCDmMXiLFeGdqZ-61" style="edgeStyle=orthogonalEdgeStyle;rounded=0;orthogonalLoop=1;jettySize=auto;html=1;entryX=0.682;entryY=0.96;entryDx=0;entryDy=0;entryPerimeter=0;" edge="1" parent="1" source="Ds0QfwhCDmMXiLFeGdqZ-55" target="Ds0QfwhCDmMXiLFeGdqZ-45">
          <mxGeometry relative="1" as="geometry" />
        </mxCell>
        <mxCell id="Ds0QfwhCDmMXiLFeGdqZ-62" style="edgeStyle=orthogonalEdgeStyle;rounded=0;orthogonalLoop=1;jettySize=auto;html=1;entryX=0.364;entryY=1;entryDx=0;entryDy=0;entryPerimeter=0;" edge="1" parent="1" source="Ds0QfwhCDmMXiLFeGdqZ-51" target="Ds0QfwhCDmMXiLFeGdqZ-45">
          <mxGeometry relative="1" as="geometry" />
        </mxCell>
        <mxCell id="Ds0QfwhCDmMXiLFeGdqZ-65" style="edgeStyle=orthogonalEdgeStyle;rounded=0;orthogonalLoop=1;jettySize=auto;html=1;exitX=1;exitY=0;exitDx=0;exitDy=0;entryX=0.355;entryY=0.96;entryDx=0;entryDy=0;entryPerimeter=0;" edge="1" parent="1" source="Ds0QfwhCDmMXiLFeGdqZ-42" target="Ds0QfwhCDmMXiLFeGdqZ-51">
          <mxGeometry relative="1" as="geometry" />
        </mxCell>
      </root>
    </mxGraphModel>
  </diagram>
</mxfile>
